<svg width="25" height="20" viewBox="0 0 25 20" fill="none" xmlns="http://www.w3.org/2000/svg">
<path d="M18.0995 20H6.89828C5.65924 20 4.58102 19.1502 4.28655 17.9403L2.07349 8.8974C1.88322 8.09085 2.0667 7.24101 2.57409 6.58711C3.08375 5.93549 3.8607 5.55044 4.68522 5.54589H7.79755C7.31054 -1.85205 17.6895 -1.84521 17.2002 5.54589C18.3758 5.54589 19.4427 5.54589 20.3126 5.54589C21.1371 5.55272 21.914 5.93549 22.4237 6.58939C22.9333 7.24101 23.1168 8.09313 22.9265 8.89968L20.7135 17.9403C20.419 19.1502 19.3408 20.0023 18.1018 20H18.0995ZM4.68522 6.96988C4.29335 6.97216 3.92639 7.15443 3.68402 7.46201C3.44391 7.77187 3.35557 8.17287 3.44618 8.55564L5.65924 17.5963C5.79741 18.1704 6.30934 18.5737 6.89602 18.5714H18.0972C18.6839 18.5714 19.1958 18.1682 19.334 17.5963L21.5471 8.55564C21.6377 8.17287 21.5493 7.7696 21.3092 7.46201C21.0669 7.15215 20.6999 6.96988 20.3103 6.9676C18.1788 6.9676 14.8671 6.9676 11.6687 6.9676H4.68522V6.96988ZM9.21327 5.54589C11.2814 5.54589 13.7708 5.54589 15.7845 5.54589C16.2851 0.0276265 8.71041 0.0299048 9.21327 5.54589Z" fill="white"/>
</svg>
