<svg width="25" height="21" viewBox="0 0 25 21" fill="none" xmlns="http://www.w3.org/2000/svg">
<path d="M12.4997 10.76C15.3246 10.76 17.6198 8.51444 17.6198 5.755C17.6198 2.99556 15.3246 0.75 12.4997 0.75C9.67472 0.75 7.37958 2.99356 7.37958 5.755C7.37958 8.51644 9.67677 10.76 12.4997 10.76ZM12.4997 2.30969C14.443 2.30969 16.0221 3.85538 16.0221 5.753C16.0221 7.65062 14.4409 9.19631 12.4997 9.19631C10.5584 9.19631 8.97718 7.65062 8.97718 5.753C8.97718 3.85538 10.5584 2.30969 12.4997 2.30969Z" fill="white"/>
<path d="M12.5 11.5158C7.29399 11.5158 3.05554 15.659 3.05554 20.75H4.65314C4.65314 16.5189 8.17154 13.0795 12.5 13.0795C16.8284 13.0795 20.3469 16.5189 20.3469 20.75H21.9444C21.9444 15.661 17.706 11.5178 12.5 11.5178V11.5158Z" fill="white"/>
</svg>
